<?xml version="1.0" encoding="UTF-8" standalone="no"?>
<!DOCTYPE svg PUBLIC "-//W3C//DTD SVG 1.1//EN"
 "http://www.w3.org/Graphics/SVG/1.1/DTD/svg11.dtd">
<!-- Generated by graphviz version 2.47.3 (20210619.1520)
 -->
<!-- Title: dependencies Pages: 1 -->
<svg width="855pt" height="247pt"
 viewBox="0.00 0.00 855.00 246.80" xmlns="http://www.w3.org/2000/svg" xmlns:xlink="http://www.w3.org/1999/xlink">
<g id="graph0" class="graph" transform="scale(1 1) rotate(0) translate(4 242.8)">
<title>dependencies</title>
<polygon fill="white" stroke="transparent" points="-4,4 -4,-242.8 851,-242.8 851,4 -4,4"/>
<text text-anchor="middle" x="423.5" y="-8.2" font-family="sans-serif" font-size="14.00">dependencies</text>
<g id="clust1" class="cluster">
<title>cluster_AppModule</title>
<polygon fill="none" stroke="black" stroke-dasharray="1,5" points="8,-32.8 8,-230.8 839,-230.8 839,-32.8 8,-32.8"/>
</g>
<g id="clust10" class="cluster">
<title>cluster_AppModule_bootstrap</title>
<polygon fill="none" stroke="black" points="357,-170.8 357,-222.8 481,-222.8 481,-170.8 357,-170.8"/>
</g>
<g id="clust8" class="cluster">
<title>cluster_AppModule_imports</title>
<polygon fill="none" stroke="black" points="687,-40.8 687,-92.8 831,-92.8 831,-40.8 687,-40.8"/>
</g>
<g id="clust2" class="cluster">
<title>cluster_AppModule_declarations</title>
<polygon fill="none" stroke="black" points="16,-40.8 16,-92.8 679,-92.8 679,-40.8 16,-40.8"/>
</g>
<!-- AppComponent -->
<g id="node1" class="node">
<title>AppComponent</title>
<polygon fill="#ffffb3" stroke="black" points="670.94,-84.8 565.06,-84.8 565.06,-48.8 670.94,-48.8 670.94,-84.8"/>
<text text-anchor="middle" x="618" y="-62.6" font-family="Times,serif" font-size="14.00">AppComponent</text>
</g>
<!-- AppModule -->
<g id="node6" class="node">
<title>AppModule</title>
<polygon fill="#8dd3c7" stroke="black" points="460.66,-149.8 457.66,-153.8 436.66,-153.8 433.66,-149.8 377.34,-149.8 377.34,-113.8 460.66,-113.8 460.66,-149.8"/>
<text text-anchor="middle" x="419" y="-127.6" font-family="Times,serif" font-size="14.00">AppModule</text>
</g>
<!-- AppComponent&#45;&gt;AppModule -->
<g id="edge1" class="edge">
<title>AppComponent&#45;&gt;AppModule</title>
<path fill="none" stroke="black" d="M618,-84.82C618,-102.17 618,-125.8 618,-125.8 618,-125.8 470.72,-125.8 470.72,-125.8"/>
<polygon fill="black" stroke="black" points="470.72,-122.3 460.72,-125.8 470.72,-129.3 470.72,-122.3"/>
</g>
<!-- FooterComponent -->
<g id="node2" class="node">
<title>FooterComponent</title>
<polygon fill="#ffffb3" stroke="black" points="546.88,-84.8 429.12,-84.8 429.12,-48.8 546.88,-48.8 546.88,-84.8"/>
<text text-anchor="middle" x="488" y="-62.6" font-family="Times,serif" font-size="14.00">FooterComponent</text>
</g>
<!-- FooterComponent&#45;&gt;AppModule -->
<g id="edge2" class="edge">
<title>FooterComponent&#45;&gt;AppModule</title>
<path fill="none" stroke="black" d="M444.94,-84.91C444.94,-84.91 444.94,-103.79 444.94,-103.79"/>
<polygon fill="black" stroke="black" points="441.44,-103.79 444.94,-113.79 448.44,-103.79 441.44,-103.79"/>
</g>
<!-- HeaderComponent -->
<g id="node3" class="node">
<title>HeaderComponent</title>
<polygon fill="#ffffb3" stroke="black" points="410.74,-84.8 289.26,-84.8 289.26,-48.8 410.74,-48.8 410.74,-84.8"/>
<text text-anchor="middle" x="350" y="-62.6" font-family="Times,serif" font-size="14.00">HeaderComponent</text>
</g>
<!-- HeaderComponent&#45;&gt;AppModule -->
<g id="edge3" class="edge">
<title>HeaderComponent&#45;&gt;AppModule</title>
<path fill="none" stroke="black" d="M394.02,-84.91C394.02,-84.91 394.02,-103.79 394.02,-103.79"/>
<polygon fill="black" stroke="black" points="390.52,-103.79 394.02,-113.79 397.52,-103.79 390.52,-103.79"/>
</g>
<!-- TableComponent -->
<g id="node4" class="node">
<title>TableComponent</title>
<polygon fill="#ffffb3" stroke="black" points="271.7,-84.8 158.3,-84.8 158.3,-48.8 271.7,-48.8 271.7,-84.8"/>
<text text-anchor="middle" x="215" y="-62.6" font-family="Times,serif" font-size="14.00">TableComponent</text>
</g>
<!-- TableComponent&#45;&gt;AppModule -->
<g id="edge4" class="edge">
<title>TableComponent&#45;&gt;AppModule</title>
<path fill="none" stroke="black" d="M215,-84.82C215,-102.17 215,-125.8 215,-125.8 215,-125.8 367.23,-125.8 367.23,-125.8"/>
<polygon fill="black" stroke="black" points="367.23,-129.3 377.23,-125.8 367.23,-122.3 367.23,-129.3"/>
</g>
<!-- TodosComponent -->
<g id="node5" class="node">
<title>TodosComponent</title>
<polygon fill="#ffffb3" stroke="black" points="140.33,-84.8 23.67,-84.8 23.67,-48.8 140.33,-48.8 140.33,-84.8"/>
<text text-anchor="middle" x="82" y="-62.6" font-family="Times,serif" font-size="14.00">TodosComponent</text>
</g>
<!-- TodosComponent&#45;&gt;AppModule -->
<g id="edge5" class="edge">
<title>TodosComponent&#45;&gt;AppModule</title>
<path fill="none" stroke="black" d="M82,-85.08C82,-106.12 82,-137.8 82,-137.8 82,-137.8 367.34,-137.8 367.34,-137.8"/>
<polygon fill="black" stroke="black" points="367.34,-141.3 377.34,-137.8 367.34,-134.3 367.34,-141.3"/>
</g>
<!-- AppComponent  -->
<g id="node8" class="node">
<title>AppComponent </title>
<polygon fill="#80b1d3" stroke="black" points="473.44,-214.8 364.56,-214.8 364.56,-178.8 473.44,-178.8 473.44,-214.8"/>
<text text-anchor="middle" x="419" y="-192.6" font-family="Times,serif" font-size="14.00">AppComponent </text>
</g>
<!-- AppModule&#45;&gt;AppComponent  -->
<g id="edge7" class="edge">
<title>AppModule&#45;&gt;AppComponent </title>
<path fill="none" stroke="black" stroke-dasharray="1,5" d="M419,-149.91C419,-149.91 419,-168.79 419,-168.79"/>
<polygon fill="black" stroke="black" points="415.5,-168.79 419,-178.79 422.5,-168.79 415.5,-168.79"/>
</g>
<!-- AppRoutingModule -->
<g id="node7" class="node">
<title>AppRoutingModule</title>
<polygon fill="#8dd3c7" stroke="black" points="823.27,-84.8 820.27,-88.8 799.27,-88.8 796.27,-84.8 694.73,-84.8 694.73,-48.8 823.27,-48.8 823.27,-84.8"/>
<text text-anchor="middle" x="759" y="-62.6" font-family="Times,serif" font-size="14.00">AppRoutingModule</text>
</g>
<!-- AppRoutingModule&#45;&gt;AppModule -->
<g id="edge6" class="edge">
<title>AppRoutingModule&#45;&gt;AppModule</title>
<path fill="none" stroke="black" d="M759,-85.08C759,-106.12 759,-137.8 759,-137.8 759,-137.8 470.69,-137.8 470.69,-137.8"/>
<polygon fill="black" stroke="black" points="470.69,-134.3 460.69,-137.8 470.69,-141.3 470.69,-134.3"/>
</g>
</g>
</svg>
