<?xml version="1.0" encoding="UTF-8" standalone="no"?>
<!DOCTYPE svg PUBLIC "-//W3C//DTD SVG 1.1//EN"
 "http://www.w3.org/Graphics/SVG/1.1/DTD/svg11.dtd">
<!-- Generated by graphviz version 2.47.3 (20210619.1520)
 -->
<!-- Title: dependencies Pages: 1 -->
<svg width="855pt" height="247pt"
 viewBox="0.00 0.00 855.00 246.80" xmlns="http://www.w3.org/2000/svg" xmlns:xlink="http://www.w3.org/1999/xlink">
<g id="graph0" class="graph" transform="scale(1 1) rotate(0) translate(4 242.8)">
<title>dependencies</title>
<polygon fill="white" stroke="transparent" points="-4,4 -4,-242.8 851,-242.8 851,4 -4,4"/>
<text text-anchor="middle" x="423.5" y="-8.2" font-family="sans-serif" font-size="14.00">dependencies</text>
<g id="clust1" class="cluster">
<title>cluster_AppModule</title>
<polygon fill="none" stroke="black" stroke-dasharray="1,5" points="8,-32.8 8,-230.8 839,-230.8 839,-32.8 8,-32.8"/>
</g>
<g id="clust2" class="cluster">
<title>cluster_AppModule_declarations</title>
<polygon fill="none" stroke="black" points="168,-40.8 168,-92.8 831,-92.8 831,-40.8 168,-40.8"/>
</g>
<g id="clust8" class="cluster">
<title>cluster_AppModule_imports</title>
<polygon fill="none" stroke="black" points="16,-40.8 16,-92.8 160,-92.8 160,-40.8 16,-40.8"/>
</g>
<g id="clust10" class="cluster">
<title>cluster_AppModule_bootstrap</title>
<polygon fill="none" stroke="black" points="372,-170.8 372,-222.8 496,-222.8 496,-170.8 372,-170.8"/>
</g>
<!-- AppComponent -->
<g id="node1" class="node">
<title>AppComponent</title>
<polygon fill="#ffffb3" stroke="black" points="822.94,-84.8 717.06,-84.8 717.06,-48.8 822.94,-48.8 822.94,-84.8"/>
<text text-anchor="middle" x="770" y="-62.6" font-family="Times,serif" font-size="14.00">AppComponent</text>
</g>
<!-- AppModule -->
<g id="node6" class="node">
<title>AppModule</title>
<polygon fill="#8dd3c7" stroke="black" points="475.66,-149.8 472.66,-153.8 451.66,-153.8 448.66,-149.8 392.34,-149.8 392.34,-113.8 475.66,-113.8 475.66,-149.8"/>
<text text-anchor="middle" x="434" y="-127.6" font-family="Times,serif" font-size="14.00">AppModule</text>
</g>
<!-- AppComponent&#45;&gt;AppModule -->
<g id="edge1" class="edge">
<title>AppComponent&#45;&gt;AppModule</title>
<path fill="none" stroke="black" d="M770,-85.08C770,-106.12 770,-137.8 770,-137.8 770,-137.8 485.88,-137.8 485.88,-137.8"/>
<polygon fill="black" stroke="black" points="485.88,-134.3 475.88,-137.8 485.88,-141.3 485.88,-134.3"/>
</g>
<!-- FooterComponent -->
<g id="node2" class="node">
<title>FooterComponent</title>
<polygon fill="#ffffb3" stroke="black" points="698.88,-84.8 581.12,-84.8 581.12,-48.8 698.88,-48.8 698.88,-84.8"/>
<text text-anchor="middle" x="640" y="-62.6" font-family="Times,serif" font-size="14.00">FooterComponent</text>
</g>
<!-- FooterComponent&#45;&gt;AppModule -->
<g id="edge2" class="edge">
<title>FooterComponent&#45;&gt;AppModule</title>
<path fill="none" stroke="black" d="M640,-84.82C640,-102.17 640,-125.8 640,-125.8 640,-125.8 485.69,-125.8 485.69,-125.8"/>
<polygon fill="black" stroke="black" points="485.69,-122.3 475.69,-125.8 485.69,-129.3 485.69,-122.3"/>
</g>
<!-- HeaderComponent -->
<g id="node3" class="node">
<title>HeaderComponent</title>
<polygon fill="#ffffb3" stroke="black" points="562.74,-84.8 441.26,-84.8 441.26,-48.8 562.74,-48.8 562.74,-84.8"/>
<text text-anchor="middle" x="502" y="-62.6" font-family="Times,serif" font-size="14.00">HeaderComponent</text>
</g>
<!-- HeaderComponent&#45;&gt;AppModule -->
<g id="edge3" class="edge">
<title>HeaderComponent&#45;&gt;AppModule</title>
<path fill="none" stroke="black" d="M458.48,-84.91C458.48,-84.91 458.48,-103.79 458.48,-103.79"/>
<polygon fill="black" stroke="black" points="454.98,-103.79 458.48,-113.79 461.98,-103.79 454.98,-103.79"/>
</g>
<!-- TableComponent -->
<g id="node4" class="node">
<title>TableComponent</title>
<polygon fill="#ffffb3" stroke="black" points="423.7,-84.8 310.3,-84.8 310.3,-48.8 423.7,-48.8 423.7,-84.8"/>
<text text-anchor="middle" x="367" y="-62.6" font-family="Times,serif" font-size="14.00">TableComponent</text>
</g>
<!-- TableComponent&#45;&gt;AppModule -->
<g id="edge4" class="edge">
<title>TableComponent&#45;&gt;AppModule</title>
<path fill="none" stroke="black" d="M407.89,-84.91C407.89,-84.91 407.89,-103.79 407.89,-103.79"/>
<polygon fill="black" stroke="black" points="404.39,-103.79 407.89,-113.79 411.39,-103.79 404.39,-103.79"/>
</g>
<!-- TodosComponent -->
<g id="node5" class="node">
<title>TodosComponent</title>
<polygon fill="#ffffb3" stroke="black" points="292.33,-84.8 175.67,-84.8 175.67,-48.8 292.33,-48.8 292.33,-84.8"/>
<text text-anchor="middle" x="234" y="-62.6" font-family="Times,serif" font-size="14.00">TodosComponent</text>
</g>
<!-- TodosComponent&#45;&gt;AppModule -->
<g id="edge5" class="edge">
<title>TodosComponent&#45;&gt;AppModule</title>
<path fill="none" stroke="black" d="M234,-84.82C234,-102.17 234,-125.8 234,-125.8 234,-125.8 382.07,-125.8 382.07,-125.8"/>
<polygon fill="black" stroke="black" points="382.07,-129.3 392.07,-125.8 382.07,-122.3 382.07,-129.3"/>
</g>
<!-- AppComponent  -->
<g id="node8" class="node">
<title>AppComponent </title>
<polygon fill="#80b1d3" stroke="black" points="488.44,-214.8 379.56,-214.8 379.56,-178.8 488.44,-178.8 488.44,-214.8"/>
<text text-anchor="middle" x="434" y="-192.6" font-family="Times,serif" font-size="14.00">AppComponent </text>
</g>
<!-- AppModule&#45;&gt;AppComponent  -->
<g id="edge7" class="edge">
<title>AppModule&#45;&gt;AppComponent </title>
<path fill="none" stroke="black" stroke-dasharray="1,5" d="M434,-149.91C434,-149.91 434,-168.79 434,-168.79"/>
<polygon fill="black" stroke="black" points="430.5,-168.79 434,-178.79 437.5,-168.79 430.5,-168.79"/>
</g>
<!-- AppRoutingModule -->
<g id="node7" class="node">
<title>AppRoutingModule</title>
<polygon fill="#8dd3c7" stroke="black" points="152.27,-84.8 149.27,-88.8 128.27,-88.8 125.27,-84.8 23.73,-84.8 23.73,-48.8 152.27,-48.8 152.27,-84.8"/>
<text text-anchor="middle" x="88" y="-62.6" font-family="Times,serif" font-size="14.00">AppRoutingModule</text>
</g>
<!-- AppRoutingModule&#45;&gt;AppModule -->
<g id="edge6" class="edge">
<title>AppRoutingModule&#45;&gt;AppModule</title>
<path fill="none" stroke="black" d="M88,-85.08C88,-106.12 88,-137.8 88,-137.8 88,-137.8 382.26,-137.8 382.26,-137.8"/>
<polygon fill="black" stroke="black" points="382.26,-141.3 392.26,-137.8 382.26,-134.3 382.26,-141.3"/>
</g>
</g>
</svg>
